<?xml version="1.0" encoding="utf-8"?>
<!-- Generator: Adobe Illustrator 18.1.1, SVG Export Plug-In . SVG Version: 6.00 Build 0)  -->
<svg version="1.1" xmlns="http://www.w3.org/2000/svg" xmlns:xlink="http://www.w3.org/1999/xlink" x="0px" y="0px" width="1150px"
	 height="560px" viewBox="0 0 1150 560" enable-background="new 0 0 1150 560" xml:space="preserve">
<g id="Backgrounds" display="none">
	<rect display="inline" width="40" height="40"/>
	<rect x="40" display="inline" width="40" height="40"/>
	<rect x="80" display="inline" width="40" height="40"/>
	<rect y="50" display="inline" width="18" height="18"/>
	<rect x="18" y="50" display="inline" width="18" height="18"/>
	<rect x="36" y="50" display="inline" width="20" height="20"/>
	<rect x="116" y="50" display="inline" width="20" height="20"/>
	<rect x="56" y="50" display="inline" width="20" height="20"/>
	<rect x="30" y="236" display="inline" width="20" height="20"/>
	<rect y="204" display="inline" width="24" height="24"/>
	<rect x="24" y="204" display="inline" width="24" height="24"/>
	<rect x="48" y="204" display="inline" width="24" height="24"/>
	<rect x="72" y="204" display="inline" width="24" height="24"/>
	<rect x="96" y="204" display="inline" width="24" height="24"/>
	<rect y="236" display="inline" width="24" height="24"/>
	<rect x="76" y="50" display="inline" width="20" height="20"/>
	<rect x="96" y="50" display="inline" width="20" height="20"/>
	<rect x="120" display="inline" width="40" height="40"/>
	<rect x="160" display="inline" width="40" height="40"/>
	<rect x="200" display="inline" width="40" height="40"/>
	<rect x="240" display="inline" width="40" height="40"/>
	<rect x="480" display="inline" width="40" height="40"/>
	<rect x="520" display="inline" width="40" height="40"/>
	<rect x="1080" display="inline" width="40" height="40"/>
	<rect x="280" display="inline" width="40" height="40"/>
	<rect x="320" display="inline" width="40" height="40"/>
	<rect x="360" display="inline" width="40" height="40"/>
	<rect x="400" display="inline" width="40" height="40"/>
	<rect x="440" display="inline" width="40" height="40"/>
	<rect y="80" display="inline" width="72" height="56"/>
	<rect x="72" y="80" display="inline" width="72" height="56"/>
	<rect x="144" y="80" display="inline" width="72" height="56"/>
	<rect y="136" display="inline" width="72" height="56"/>
	<rect x="72" y="136" display="inline" width="72" height="56"/>
	<rect x="144" y="136" display="inline" width="72" height="56"/>
	<rect x="216" y="80" display="inline" width="40" height="24"/>
	<rect x="256" y="80" display="inline" width="40" height="24"/>
	<rect x="216" y="104" display="inline" width="40" height="24"/>
	<rect x="256" y="104" display="inline" width="40" height="24"/>
	<rect x="216" y="127" display="inline" width="40" height="24"/>
	<rect x="256" y="127" display="inline" width="40" height="24"/>
	<rect x="560" display="inline" width="40" height="40"/>
	<rect x="600" display="inline" width="40" height="40"/>
	<rect x="640" display="inline" width="40" height="40"/>
	<rect x="680" display="inline" width="40" height="40"/>
	<rect x="720" display="inline" width="40" height="40"/>
	<rect x="760" display="inline" width="40" height="40"/>
	<rect x="800" display="inline" width="40" height="40"/>
	<rect x="840" display="inline" width="40" height="40"/>
	<rect x="880" display="inline" width="40" height="40"/>
	<rect x="920" display="inline" width="40" height="40"/>
	<rect x="960" display="inline" width="40" height="40"/>
	<rect x="120" y="204" display="inline" width="24" height="24"/>
	<rect x="144" y="204" display="inline" width="24" height="24"/>
	<rect x="168" y="204" display="inline" width="24" height="24"/>
	<rect x="192" y="204" display="inline" width="24" height="24"/>
	<rect x="216" y="204" display="inline" width="24" height="24"/>
	<rect x="240" y="204" display="inline" width="24" height="24"/>
	<rect x="264" y="204" display="inline" width="24" height="24"/>
	<rect x="288" y="204" display="inline" width="24" height="24"/>
	<rect x="312" y="204" display="inline" width="24" height="24"/>
	<rect x="296" y="80" display="inline" width="40" height="24"/>
	<rect x="336" y="80" display="inline" width="40" height="24"/>
	<rect x="296" y="104" display="inline" width="40" height="24"/>
	<rect x="336" y="104" display="inline" width="40" height="24"/>
	<rect x="296" y="127" display="inline" width="40" height="24"/>
	<rect x="336" y="127" display="inline" width="40" height="24"/>
	<rect x="336" y="204" display="inline" width="24" height="24"/>
	<rect x="360" y="204" display="inline" width="24" height="24"/>
	<rect x="384" y="204" display="inline" width="24" height="24"/>
	<rect x="408" y="204" display="inline" width="24" height="24"/>
	<rect x="1000" display="inline" width="40" height="40"/>
	<rect x="1040" display="inline" width="40" height="40"/>
	<rect y="270" display="inline" width="30" height="24"/>
	<rect x="30" y="270" display="inline" width="30" height="24"/>
</g>
<g id="Icons">
	<path id="Search" fill="#FAFAFA" d="M103.9,22.3h-0.8l-0.3-0.3c1-1.2,1.6-2.7,1.6-4.4c0-3.7-3-6.7-6.7-6.7S91,14,91,17.7
		s3,6.7,6.7,6.7c1.7,0,3.2-0.6,4.4-1.6l0.3,0.3v0.8l5.1,5.1l1.5-1.5L103.9,22.3z M97.7,22.3c-2.6,0-4.6-2.1-4.6-4.6s2.1-4.6,4.6-4.6
		s4.6,2.1,4.6,4.6S100.3,22.3,97.7,22.3z"/>
	<g>
		<path fill="#9E9E9E" d="M236,116c1.7,0,3-1.3,3-3s-1.3-3-3-3s-3,1.3-3,3S234.3,116,236,116z M236,117.5c-2,0-6,1-6,3v1.5h12v-1.5
			C242,118.5,238,117.5,236,117.5z"/>
		<path id="Search_3_" fill="#9E9E9E" d="M229.3,114.8H229l-0.1-0.1c0.3-0.4,0.5-0.9,0.5-1.5c0-1.2-1-2.2-2.2-2.2
			c-1.2,0-2.2,1-2.2,2.2s1,2.2,2.2,2.2c0.6,0,1.1-0.2,1.5-0.5l0.1,0.1v0.3l1.7,1.7l0.5-0.5L229.3,114.8z M227.2,114.8
			c-0.9,0-1.6-0.7-1.6-1.6c0-0.9,0.7-1.6,1.6-1.6s1.6,0.7,1.6,1.6C228.8,114.1,228.1,114.8,227.2,114.8z"/>
	</g>
	<g>
		<path fill="#FAFAFA" d="M276,116c1.7,0,3-1.3,3-3s-1.3-3-3-3s-3,1.3-3,3S274.3,116,276,116z M276,117.5c-2,0-6,1-6,3v1.5h12v-1.5
			C282,118.5,278,117.5,276,117.5z"/>
		<path id="Search_4_" fill="#FAFAFA" d="M269.3,114.8H269l-0.1-0.1c0.3-0.4,0.5-0.9,0.5-1.5c0-1.2-1-2.2-2.2-2.2s-2.2,1-2.2,2.2
			s1,2.2,2.2,2.2c0.6,0,1.1-0.2,1.5-0.5l0.1,0.1v0.3l1.7,1.7l0.5-0.5L269.3,114.8z M267.2,114.8c-0.9,0-1.6-0.7-1.6-1.6
			c0-0.9,0.7-1.6,1.6-1.6c0.9,0,1.6,0.7,1.6,1.6C268.8,114.1,268.1,114.8,267.2,114.8z"/>
	</g>
	<path id="Search_1_" fill="#BDBDBD" d="M12.9,61.3h-0.8L11.8,61c1-1.2,1.6-2.7,1.6-4.4c0-3.7-3-6.7-6.7-6.7S0,53,0,56.7
		s3,6.7,6.7,6.7c1.7,0,3.2-0.6,4.4-1.6l0.3,0.3v0.8l5.1,5.1l1.5-1.5L12.9,61.3z M6.7,61.3c-2.6,0-4.6-2.1-4.6-4.6s2.1-4.6,4.6-4.6
		s4.6,2.1,4.6,4.6S9.3,61.3,6.7,61.3z"/>
	<g id="Kebab">
		<path fill="#FAFAFA" d="M181,15h-2c-0.6,0-1-0.4-1-1v-2c0-0.5,0.4-1,1-1h2c0.6,0,1,0.4,1,1v2C182,14.6,181.6,15,181,15z"/>
		<path fill="#FAFAFA" d="M181,22h-2c-0.6,0-1-0.4-1-1v-2c0-0.5,0.4-1,1-1h2c0.6,0,1,0.4,1,1v2C182,21.6,181.6,22,181,22z"/>
		<path fill="#FAFAFA" d="M181,29h-2c-0.6,0-1-0.4-1-1v-2c0-0.5,0.4-1,1-1h2c0.6,0,1,0.4,1,1v2C182,28.6,181.6,29,181,29z"/>
	</g>
	<path id="Delete" fill="#FAFAFA" d="M214,27c0,1.1,0.9,2,2,2h8c1.1,0,2-0.9,2-2V15h-12V27z M227,12h-3.5l-1-1h-5l-1,1H213v2h14V12z
		"/>
	<path fill="#FAFAFA" d="M256.7,24.1l-4.3-4.4l-1.4,1.5l5.7,5.9L269,14.5l-1.4-1.5L256.7,24.1z"/>
	<path fill="#9E9E9E" d="M496.7,24.1l-4.3-4.4l-1.4,1.5l5.7,5.9L509,14.5l-1.4-1.5L496.7,24.1z"/>
	<path fill="#FFFFFF" d="M63.5,63.5l-3.3-3.8L59,61l4.5,5L73,55.3L71.9,54L63.5,63.5z"/>
	<g>
		<polygon fill="#FAFAFA" points="300,21.7 294.7,27 293,25.3 298.3,20 293,14.7 294.7,13 300,18.3 305.3,13 307,14.7 301.7,20 
			307,25.3 305.3,27 		"/>
	</g>
	<g>
		<polygon fill="#FFFFFF" points="27,60 24,63 23,62 26,59 23,56 24,55 27,58 30,55 31,56 28,59 31,62 30,63 		"/>
	</g>
	<circle fill="#1EA889" cx="46" cy="60" r="6"/>
	<circle fill="#EA2B1C" cx="126" cy="60" r="6"/>
	<path fill="#FAFAFA" d="M347,21h-6v6h-2v-6h-6v-2h6v-6h2v6h6V21z"/>
	<path fill="#FAFAFA" d="M387,21h-14v-2h14V21z"/>
	<path fill="none" d="M76,50h24v24H76V50z"/>
	<path display="none" fill="#FFFFFF" d="M544,26l2.3-2.1l-4.9-4.5l-4,3.7l-7.4-6.8l1.4-1.3l6,5.5l4-3.7l6.3,5.8l2.3-2.1V26H544z"/>
	<path display="none" fill="#FFFFFF" d="M544,66l2.3-2.1l-4.9-4.5l-4,3.7l-7.4-6.8l1.4-1.3l6,5.5l4-3.7l6.3,5.8l2.3-2.1V66H544z"/>
	<path fill="#FAFAFA" d="M131,26h18v-2h-18V26z M131,21h18v-2h-18V21z M131,14v2h18v-2H131z"/>
	<path fill="#FAFAFA" d="M28,19H15.8l5.6-5.6L20,12l-8,8l8,8l1.4-1.4L15.8,21H28V19z"/>
	<path fill="#FAFAFA" d="M52,21h12.2l-5.6,5.6L60,28l8-8l-8-8l-1.4,1.4l5.6,5.6H52V21z"/>
	<g>
		<g>
			<path fill-rule="evenodd" clip-rule="evenodd" fill="#EA2B1C" d="M40,253.8c4.3,0,7.8-3.5,7.8-7.8s-3.5-7.8-7.8-7.8
				s-7.8,3.5-7.8,7.8S35.7,253.8,40,253.8z M40,256c5.5,0,10-4.5,10-10s-4.5-10-10-10s-10,4.5-10,10S34.5,256,40,256z"/>
		</g>
		<g>
			<g>
				<path fill="#F14323" d="M34.7,249.3v-0.6l0.8-0.7c1.8-1.8,2.7-2.7,2.7-3.8c0-0.7-0.4-1.4-1.4-1.4c-0.7,0-1.2,0.3-1.5,0.6
					l-0.3-0.7c0.5-0.4,1.2-0.7,2-0.7c1.6,0,2.2,1.1,2.2,2.1c0,1.3-1,2.4-2.5,3.9l-0.6,0.5v0h3.2v0.8H34.7z"/>
			</g>
			<g>
				<path fill="#F14323" d="M42.5,243L42.5,243l-1.3,0.7l-0.2-0.7l1.6-0.8h0.8v7.2h-0.9V243z"/>
			</g>
		</g>
		<g>
			
				<rect x="30" y="245.8" transform="matrix(0.9462 0.3237 -0.3237 0.9462 81.8798 0.4008)" fill="#EA2B1C" width="19.4" height="1.1"/>
		</g>
	</g>
	<path fill="#616161" d="M20,210h-2.2c0.1-0.3,0.2-0.6,0.2-1c0-1.7-1.3-3-3-3c-1.1,0-2,0.5-2.5,1.4L12,208l-0.5-0.7
		C11,206.5,10.1,206,9,206c-1.7,0-3,1.3-3,3c0,0.4,0.1,0.7,0.2,1H4c-1.1,0-2,0.9-2,2l0,11c0,1.1,0.9,2,2,2h16c1.1,0,2-0.9,2-2v-11
		C22,210.9,21.1,210,20,210z M15,208c0.6,0,1,0.4,1,1s-0.4,1-1,1s-1-0.4-1-1S14.4,208,15,208z M9,208c0.6,0,1,0.4,1,1s-0.4,1-1,1
		s-1-0.4-1-1S8.4,208,9,208z M20,223H4v-2h16V223z M20,218H4v-6h5.1L7,214.8l1.6,1.2l2.4-3.2l1-1.4l1,1.4l2.4,3.2l1.6-1.2l-2.1-2.8
		H20V218z"/>
	<path fill="#616161" d="M104.3,220.6l4.6-4.6l-4.6-4.6l1.4-1.4l6,6l-6,6L104.3,220.6z"/>
	<path fill="#616161" d="M68,208H52c-1.1,0-2,0.9-2,2l0,12c0,1.1,0.9,2,2,2h16c1.1,0,2-0.9,2-2v-12C70,208.9,69.1,208,68,208z
		 M68,222H52v-6h16V222z M68,212H52v-2h16V212z"/>
	<g id="Page-1_1_">
		<g id="e-payment_1_" transform="translate(-1.000000, -1.000000)">
			<path id="Shape-Copy_1_" fill="none" d="M28,208h18v18H28V208L28,208z"/>
			<path id="Shape_1_" fill="#616161" d="M28.8,214.1v1.9h1.5v-2.3h13.5v2.6h-5.1c-0.8,0-1.5,0.7-1.5,1.5v2.3c0,0.8,0.7,1.5,1.5,1.5
				h5.1v2.6h-5.3v1.5h5.3c0.8,0,1.5-0.7,1.5-1.5v-10.7c0-0.8-0.7-1.5-1.5-1.5h-3.9H41h1.5v-2.6c0-0.8-0.7-1.5-1.5-1.5l-10.7,2.8
				c-0.8,0-1.5,0.7-1.5,1.5V214.1L28.8,214.1z M43.8,217.9v2.3h-5.1v-2.3H43.8L43.8,217.9z M28.8,223.6v2.3H31
				C31,224.6,30,223.6,28.8,223.6L28.8,223.6L28.8,223.6z M28.8,220.5v1.5c2.1,0,3.8,1.7,3.8,3.8H34C34,222.9,31.7,220.5,28.8,220.5
				L28.8,220.5L28.8,220.5z M28.8,217.5v1.5c3.8,0,6.8,3.1,6.8,6.8H37C37,221.2,33.3,217.5,28.8,217.5L28.8,217.5L28.8,217.5z"/>
		</g>
	</g>
	<path fill="#9E9E9E" d="M32,114c-1.1,0-2,0.9-2,2s0.9,2,2,2c1.1,0,2-0.9,2-2S33.1,114,32,114z M26,98v2h2l3.6,7.6l-1.4,2.5
		c-0.2,0.3-0.3,0.6-0.3,1c0,1.1,0.9,2,2,2h12v-2H32.4c-0.1,0-0.3-0.1-0.3-0.3l0-0.1l0.9-1.6h7.5c0.8,0,1.4-0.4,1.8-1l3.6-6.5
		c0.1-0.1,0.1-0.3,0.1-0.5c0-0.6-0.5-1-1-1H30.2l-0.9-2H26z M42,114c-1.1,0-2,0.9-2,2s0.9,2,2,2s2-0.9,2-2S43.1,114,42,114z"/>
	<path fill="#9E9E9E" d="M115.4,109c0-0.3,0.1-0.6,0.1-1s0-0.7-0.1-1l2.1-1.7c0.2-0.2,0.2-0.4,0.1-0.6l-2-3.5
		c-0.1-0.2-0.4-0.3-0.6-0.2l-2.5,1c-0.5-0.4-1.1-0.7-1.7-1l-0.4-2.7c0-0.2-0.2-0.4-0.5-0.4h-4c-0.3,0-0.5,0.2-0.5,0.4l-0.4,2.7
		c-0.6,0.3-1.2,0.6-1.7,1l-2.5-1c-0.2-0.1-0.5,0-0.6,0.2l-2,3.5c-0.1,0.2-0.1,0.5,0.1,0.6l2.1,1.7c0,0.3-0.1,0.6-0.1,1s0,0.7,0.1,1
		l-2.1,1.6c-0.2,0.2-0.2,0.4-0.1,0.6l2,3.5c0.1,0.2,0.4,0.3,0.6,0.2l2.5-1c0.5,0.4,1.1,0.7,1.7,1l0.4,2.7c0,0.2,0.2,0.4,0.5,0.4h4
		c0.3,0,0.5-0.2,0.5-0.4l0.4-2.7c0.6-0.3,1.2-0.6,1.7-1l2.5,1c0.2,0.1,0.5,0,0.6-0.2l2-3.5c0.1-0.2,0.1-0.5-0.1-0.6L115.4,109z
		 M108,111.5c-1.9,0-3.5-1.6-3.5-3.5s1.6-3.5,3.5-3.5s3.5,1.6,3.5,3.5S109.9,111.5,108,111.5z"/>
	<path fill="#9E9E9E" d="M181,99h-2v10h2V99z M185.8,101.2l-1.4,1.4c1.6,1.3,2.6,3.2,2.6,5.4c0,3.9-3.1,7-7,7s-7-3.1-7-7
		c0-2.2,1-4.1,2.6-5.4l-1.4-1.4c-1.9,1.7-3.2,4.1-3.2,6.8c0,5,4,9,9,9s9-4,9-9C189,105.3,187.8,102.8,185.8,101.2z"/>
	<path fill="#FAFAFA" d="M32,170c-1.1,0-2,0.9-2,2s0.9,2,2,2c1.1,0,2-0.9,2-2S33.1,170,32,170z M26,154v2h2l3.6,7.6l-1.4,2.4
		c-0.2,0.3-0.3,0.6-0.3,1c0,1.1,0.9,2,2,2h12v-2H32.4c-0.1,0-0.3-0.1-0.3-0.3l0-0.1l0.9-1.6h7.5c0.8,0,1.4-0.4,1.8-1l3.6-6.5
		c0.1-0.1,0.1-0.3,0.1-0.5c0-0.6-0.5-1-1-1H30.2l-0.9-2H26z M42,170c-1.1,0-2,0.9-2,2s0.9,2,2,2s2-0.9,2-2S43.1,170,42,170z"/>
	<path fill="#FAFAFA" d="M115.4,165c0-0.3,0.1-0.6,0.1-1s0-0.7-0.1-1l2.1-1.7c0.2-0.1,0.2-0.4,0.1-0.6l-2-3.5
		c-0.1-0.2-0.4-0.3-0.6-0.2l-2.5,1c-0.5-0.4-1.1-0.7-1.7-1l-0.4-2.7c0-0.2-0.2-0.4-0.5-0.4h-4c-0.3,0-0.5,0.2-0.5,0.4l-0.4,2.7
		c-0.6,0.3-1.2,0.6-1.7,1l-2.5-1c-0.2-0.1-0.5,0-0.6,0.2l-2,3.5c-0.1,0.2-0.1,0.5,0.1,0.6l2.1,1.7c0,0.3-0.1,0.6-0.1,1s0,0.7,0.1,1
		l-2.1,1.7c-0.2,0.1-0.2,0.4-0.1,0.6l2,3.5c0.1,0.2,0.4,0.3,0.6,0.2l2.5-1c0.5,0.4,1.1,0.7,1.7,1l0.4,2.7c0,0.2,0.2,0.4,0.5,0.4h4
		c0.3,0,0.5-0.2,0.5-0.4l0.4-2.7c0.6-0.3,1.2-0.6,1.7-1l2.5,1c0.2,0.1,0.5,0,0.6-0.2l2-3.5c0.1-0.2,0.1-0.5-0.1-0.6L115.4,165z
		 M108,167.5c-1.9,0-3.5-1.6-3.5-3.5c0-1.9,1.6-3.5,3.5-3.5s3.5,1.6,3.5,3.5C111.5,165.9,109.9,167.5,108,167.5z"/>
	<path fill="#FAFAFA" d="M181,155h-2v10h2V155z M185.8,157.2l-1.4,1.4c1.6,1.3,2.6,3.2,2.6,5.4c0,3.9-3.1,7-7,7s-7-3.1-7-7
		c0-2.2,1-4.1,2.6-5.4l-1.4-1.4c-1.9,1.7-3.2,4.1-3.2,6.8c0,5,4,9,9,9s9-4,9-9C189,161.3,187.8,158.8,185.8,157.2z"/>
	<path fill="#9E9E9E" d="M236,92c1.7,0,3-1.3,3-3s-1.3-3-3-3s-3,1.3-3,3S234.3,92,236,92z M236,93.5c-2,0-6,1-6,3V98h12v-1.5
		C242,94.5,238,93.5,236,93.5z"/>
	<path fill="#FAFAFA" d="M276,92c1.7,0,3-1.3,3-3s-1.3-3-3-3s-3,1.3-3,3S274.3,92,276,92z M276,93.5c-2,0-6,1-6,3V98h12v-1.5
		C282,94.5,278,93.5,276,93.5z"/>
	<path fill="#9E9E9E" d="M236,139c1.7,0,3-1.3,3-3s-1.3-3-3-3s-3,1.3-3,3S234.3,139,236,139z M229.3,137.5v-2.3h-1.5v2.3h-2.3v1.5
		h2.3v2.3h1.5V139h2.3v-1.5H229.3z M236,140.5c-2,0-6,1-6,3v1.5h12v-1.5C242,141.5,238,140.5,236,140.5z"/>
	<path fill="#FAFAFA" d="M276,139c1.7,0,3-1.3,3-3s-1.3-3-3-3s-3,1.3-3,3S274.3,139,276,139z M269.3,137.5v-2.3h-1.5v2.3h-2.3v1.5
		h2.3v2.3h1.5V139h2.3v-1.5H269.3z M276,140.5c-2,0-6,1-6,3v1.5h12v-1.5C282,141.5,278,140.5,276,140.5z"/>
	<path fill="#FAFAFA" d="M409,29h22l-11-19L409,29z M421,26h-2v-2h2V26z M421,22h-2v-4h2V22z"/>
	<g>
		<path fill="#FAFAFA" d="M460,8.5c-6.6,0-12,5.4-12,12c0,6.6,5.4,12,12,12s12-5.4,12-12C472,13.9,466.6,8.5,460,8.5z M461,26h-2v-6
			h2V26z M461,18h-2v-2h2V18z"/>
	</g>
	<g>
		<g>
			<path fill-rule="evenodd" clip-rule="evenodd" d="M5,254.7c0-0.7,0.3-1.3,0.6-1.9c0.4-0.6,0.9-1.2,1.4-1.7c0.7-0.7,1.4-1.3,2-2
				c0.4-0.4,0.6-0.8,0.8-1.3c0.1-0.3,0.1-0.6,0-0.9c-0.2-0.6-0.7-0.9-1.4-0.8c-0.7,0.1-1.1,0.4-1.2,1.1c0,0.1,0,0.3-0.1,0.4
				c-0.6-0.1-1.3-0.1-1.9-0.2c0-0.4,0.1-0.8,0.3-1.2c0.4-1,1.2-1.5,2.2-1.7c0.9-0.2,1.7-0.2,2.5,0.2c1,0.5,1.5,1.3,1.6,2.4
				c0,1-0.4,1.8-0.9,2.5c-0.5,0.6-1.1,1.1-1.6,1.6c-0.4,0.3-0.7,0.7-1,1c-0.1,0.1-0.2,0.2-0.3,0.4c1.3,0,2.6,0,3.8,0
				c0,0.6,0,1.2,0,1.8C9.5,254.7,7.2,254.7,5,254.7z"/>
			<path fill-rule="evenodd" clip-rule="evenodd" d="M15.7,254.7c0-1.2,0-2.4,0-3.7c0-1.1,0-2.3,0-3.4c0-0.1,0-0.1,0-0.2
				c-0.7,0.7-1.6,1.2-2.5,1.5c0-0.2,0-0.4,0-0.6c0-0.3,0-0.7,0-1c0-0.1,0-0.2,0.2-0.2c1-0.4,1.8-1,2.4-1.8c0.1-0.2,0.2-0.4,0.3-0.5
				c0,0,0.1-0.1,0.1-0.1c0.5,0,1,0,1.5,0c0,0.1,0,0.1,0,0.2c0,3.3,0,6.5,0,9.8c0,0.1,0,0.1,0,0.2C17,254.7,16.4,254.7,15.7,254.7z"
				/>
			<path fill-rule="evenodd" clip-rule="evenodd" d="M18,241.3c0.1,0,0.1,0,0.2,0c0.3,0,0.6,0.3,0.6,0.6c0,0.3-0.1,0.6-0.4,0.8
				c-0.1,0-0.1,0-0.2,0.1c0.4,0.3,0.6,0.7,0.9,1.2c-0.2,0-0.4,0-0.6,0c0,0-0.1-0.1-0.1-0.1c-0.2-0.2-0.3-0.5-0.5-0.7
				c-0.2-0.2-0.4-0.3-0.7-0.3c0,0.4,0,0.7,0,1.1c-0.2,0-0.3,0-0.5,0c0-0.9,0-1.8,0-2.6C17.1,241.3,17.6,241.3,18,241.3z M17.2,242.4
				c0.3,0,0.5,0,0.8,0c0.2,0,0.3-0.1,0.3-0.3c0-0.2-0.1-0.3-0.2-0.3c-0.3,0-0.5,0-0.8,0C17.2,242,17.2,242.2,17.2,242.4z"/>
			<path fill-rule="evenodd" clip-rule="evenodd" d="M10.7,241.3c0,0.9,0,1.8,0,2.7c-0.2,0-0.3,0-0.5,0c0,0-0.1-0.1-0.1-0.1
				c-0.3-0.5-0.6-1-0.9-1.4c0,0-0.1-0.1-0.1-0.2c0,0.6,0,1.2,0,1.7c-0.2,0-0.3,0-0.5,0c0-0.9,0-1.8,0-2.6c0.2,0,0.3,0,0.5,0
				c0.3,0.6,0.7,1.1,1,1.7c0-0.2,0-0.5,0-0.7c0-0.3,0-0.7,0-1C10.4,241.3,10.6,241.3,10.7,241.3z"/>
			<path fill-rule="evenodd" clip-rule="evenodd" d="M12.6,241.3c0.1,0,0.2,0,0.2,0c0.3,0.1,0.6,0.3,0.7,0.6c0.1,0.4,0.1,0.8,0,1.3
				c-0.1,0.4-0.4,0.7-0.8,0.7c-0.4,0-0.8,0-1.3,0c0-0.9,0-1.8,0-2.6C11.8,241.3,12.2,241.3,12.6,241.3z M11.9,241.8
				c0,0.6,0,1.1,0,1.7c0.2,0,0.4,0,0.6,0c0.3,0,0.4-0.1,0.5-0.4c0.1-0.3,0.1-0.6,0-0.9c-0.1-0.3-0.2-0.4-0.5-0.4
				C12.3,241.8,12.1,241.8,11.9,241.8z"/>
			<path fill-rule="evenodd" clip-rule="evenodd" d="M16.1,241.3c0,0.1,0,0.3,0,0.4c-0.5,0-0.9,0-1.4,0c0,0.2,0,0.4,0,0.6
				c0.4,0,0.9,0,1.3,0c0,0.2,0,0.3,0,0.4c-0.4,0-0.9,0-1.3,0c0,0.2,0,0.5,0,0.7c0.5,0,1,0,1.5,0c0,0.2,0,0.3,0,0.4c-0.7,0-1.3,0-2,0
				c0-0.9,0-1.8,0-2.6C14.8,241.3,15.4,241.3,16.1,241.3z"/>
			<path fill-rule="evenodd" clip-rule="evenodd" d="M8,241.3c0,0.5,0,1.1,0,1.6c0,0.1,0,0.3,0,0.4c-0.1,0.3-0.2,0.5-0.5,0.6
				c-0.3,0.1-0.6,0.1-0.9,0c-0.3-0.1-0.6-0.3-0.6-0.7c0-0.7,0-1.3,0-2c0.2,0,0.3,0,0.5,0c0,0.2,0,0.4,0,0.6c0,0.4,0,0.8,0,1.2
				c0,0.3,0.2,0.4,0.5,0.4c0.3,0,0.5-0.2,0.5-0.5c0-0.6,0-1.2,0-1.8C7.7,241.3,7.8,241.3,8,241.3z"/>
		</g>
		<g>
			<path fill-rule="evenodd" clip-rule="evenodd" fill="#EE4137" d="M12,260c-6.7,0-12-5.3-12-12c0-6.7,5.4-12,12-12
				c6.6,0,12,5.3,12,12C24,254.7,18.6,260,12,260z M3.9,240.8c-2.6,3-3.4,6.5-2.3,10.3c1.2,4.2,5,7.3,9.4,7.6
				c3.1,0.3,5.8-0.7,8.2-2.8C14.1,250.9,9.1,245.9,3.9,240.8z M20.1,255.2c2.5-3,3.3-6.4,2.3-10.2c-1.1-4.1-4.7-7.1-8.9-7.7
				c-3.3-0.4-6.2,0.5-8.7,2.6C9.9,245,15,250.1,20.1,255.2z"/>
		</g>
	</g>
	<path fill="#F47421" d="M114,60l-4-4v3H98v2h12v3L114,60z"/>
	<path fill="#616161" d="M91,212H77c-1.7,0-3,1.3-3,3v6h4v4h12v-4h4v-6C94,213.3,92.7,212,91,212z M88,223h-8v-5h8V223z M91,216
		c-0.6,0-1-0.4-1-1s0.4-1,1-1s1,0.4,1,1S91.6,216,91,216z M90,207H78v4h12V207z"/>
	<path fill="#FFFFFF" d="M747,16h-14c-1.7,0-3,1.3-3,3v6h4v4h12v-4h4v-6C750,17.3,748.7,16,747,16z M744,27h-8v-5h8V27z M747,20
		c-0.5,0-1-0.5-1-1s0.5-1,1-1s1,0.5,1,1S747.5,20,747,20z M746,11h-12v4h12V11z"/>
	<path fill="#212121" d="M700,8c-6.6,0-12,5.4-12,12c0,6.6,5.4,12,12,12s12-5.4,12-12C712,13.4,706.6,8,700,8z M701,26h-2v-6h2V26z
		 M701,17.5h-2v-2h2V17.5z"/>
	<path fill="#616161" d="M660,8c-6.6,0-12,5.4-12,12c0,6.6,5.4,12,12,12s12-5.4,12-12C672,13.4,666.6,8,660,8z M661,26h-2v-6h2V26z
		 M661,17.5h-2v-2h2V17.5z"/>
	<g enable-background="new    ">
		<g>
			<defs>
				<rect id="SVGID_1_" x="124" y="206" width="16" height="20"/>
			</defs>
			<clipPath id="SVGID_2_">
				<use xlink:href="#SVGID_1_"  overflow="visible"/>
			</clipPath>
			<g clip-path="url(#SVGID_2_)">
				<defs>
					<path id="SVGID_3_" d="M126,208h5v8l-2.5-1.5L126,216V208z M138,206h-12c-1.1,0-2,0.9-2,2v16c0,1.1,0.9,2,2,2h12
						c1.1,0,2-0.9,2-2v-16C140,206.9,139.1,206,138,206z"/>
				</defs>
				<clipPath id="SVGID_4_">
					<use xlink:href="#SVGID_3_"  overflow="visible"/>
				</clipPath>
				<g clip-path="url(#SVGID_4_)">
					<defs>
						<rect id="SVGID_5_" x="124" y="206" width="16" height="20"/>
					</defs>
					<clipPath id="SVGID_6_">
						<use xlink:href="#SVGID_5_"  overflow="visible"/>
					</clipPath>
					<rect x="119" y="201" clip-path="url(#SVGID_6_)" fill="#616161" width="26" height="30"/>
				</g>
			</g>
		</g>
	</g>
	<g enable-background="new    ">
		<g>
			<defs>
				<rect id="SVGID_7_" x="146" y="208" width="20" height="16"/>
			</defs>
			<clipPath id="SVGID_8_">
				<use xlink:href="#SVGID_7_"  overflow="visible"/>
			</clipPath>
			<g clip-path="url(#SVGID_8_)">
				<defs>
					<path id="SVGID_9_" d="M160.8,222.2l-2.9-2.9c-0.7,0.4-1.5,0.7-2.4,0.7c-2.5,0-4.5-2-4.5-4.5s2-4.5,4.5-4.5s4.5,2,4.5,4.5
						c0,0.9-0.3,1.7-0.7,2.4l2.9,2.9L160.8,222.2z M164,208h-16c-1.1,0-2,0.9-2,2v12c0,1.1,0.9,2,2,2h16c1.1,0,2-0.9,2-2v-12
						C166,208.9,165.1,208,164,208z M155.5,213c-1.4,0-2.5,1.1-2.5,2.5s1.1,2.5,2.5,2.5s2.5-1.1,2.5-2.5S156.9,213,155.5,213z"/>
				</defs>
				<clipPath id="SVGID_10_">
					<use xlink:href="#SVGID_9_"  overflow="visible"/>
				</clipPath>
				<g clip-path="url(#SVGID_10_)">
					<defs>
						<rect id="SVGID_11_" x="146" y="208" width="20" height="16"/>
					</defs>
					<clipPath id="SVGID_12_">
						<use xlink:href="#SVGID_11_"  overflow="visible"/>
					</clipPath>
					<rect x="141" y="203" clip-path="url(#SVGID_12_)" fill="#616161" width="30" height="26"/>
				</g>
			</g>
		</g>
	</g>
	<path fill="#FFFFFF" d="M780,30l4-4h-8 M787,15h-2v-2h2 M787,18h-2v-2h2 M784,15h-2v-2h2 M784,18h-2v-2h2 M784,22h-8v-2h8 M775,15
		h-2v-2h2 M775,18h-2v-2h2 M776,16h2v2h-2 M776,13h2v2h-2 M779,16h2v2h-2 M779,13h2v2h-2 M788,10h-16c-1.1,0-2,0.9-2,2v10
		c0,1.1,0.9,2,2,2h16c1.1,0,2-0.9,2-2V12C790,10.9,789.1,10,788,10z"/>
	<g>
		<path fill="#FFFDFD" d="M816.5,27.3c-1.1,0-2,0.9-2,2c0,1.1,0.9,2,2,2s2-0.9,2-2C818.5,28.1,817.6,27.3,816.5,27.3z"/>
		<path fill="#FFFDFD" d="M817.6,22h7.5c0.8,0,1.4-0.3,1.8-0.9l3.6-6.4c0.1-0.1,0.1-0.4,0.1-0.6c0-0.5-0.5-1.1-1-1.1h-1.6h-1.2h-1.2
			H824v5v1h-1.5h-2H820v-1v-5h-2.5h-1.2h-1.2h-0.4l-0.9-2H810v2h2.5l3.6,7.7l-1.3,2.5c-0.2,0.3-0.3,0.5-0.3,0.9c0,1.1,0.9,1.9,2,1.9
			H828v-2h-11.1c-0.1,0-0.3,0-0.3-0.1l0-0.2L817.6,22z"/>
		<path fill="#FFFDFD" d="M826.5,27.3c-1.1,0-2,0.9-2,2c0,1.1,0.9,2,2,2s2-0.9,2-2C828.5,28.1,827.6,27.3,826.5,27.3z"/>
		<polygon fill="#FFFDFD" points="823,18 823,13.3 823,12 826,12 822,8 818,12 821,12 821,13.3 821,18 		"/>
	</g>
	
		<g id="Rectangle-1-Copy-10-_x2B_-shopping-basket-copy-16-Copy-Copy-Copy-Copy-Copy-Copy-Copy-Copy-Copy-Copy-Copy-Copy-Copy" transform="translate(576.000000, 416.000000)">
		<g id="Group-Copy-5">
			<g id="ic_card_giftcard_black_24px" transform="translate(32.000000, 43.000000)">
				<polygon id="Shape" fill="none" points="-440,-254 -416,-254 -416,-230 -440,-230 				"/>
			</g>
		</g>
	</g>
	<g id="L_1_">
		<g id="Split_Payment_Screens_04-Copy_1_" transform="translate(-610.000000, -578.000000)">
			
				<g id="Rectangle-1-Copy-10-_x2B_-shopping-basket-copy-16-Copy-Copy-Copy-Copy-Copy-Copy-Copy-Copy-Copy-Copy-Copy-Copy-Copy-Copy" transform="translate(576.000000, 531.000000)">
				<g id="Group-Copy-5_1_">
					<g id="ic_card_giftcard_black_24px_1_" transform="translate(32.000000, 45.000000)">
						<path id="Shape_8_" fill="#616161" d="M238,212h-2.2c0.1-0.3,0.2-0.6,0.2-1c0-1.7-1.3-3-3-3c-1.1,0-2,0.5-2.5,1.4L230,210
							l-0.5-0.7c-0.5-0.8-1.4-1.3-2.5-1.3c-1.7,0-3,1.3-3,3c0,0.4,0.1,0.7,0.2,1H222c-1.1,0-2,0.9-2,2l0,11c0,1.1,0.9,2,2,2h16
							c1.1,0,2-0.9,2-2v-11C240,212.9,239.1,212,238,212L238,212z M233,210c0.6,0,1,0.4,1,1s-0.4,1-1,1s-1-0.4-1-1
							S232.4,210,233,210L233,210z M227,210c0.6,0,1,0.4,1,1s-0.4,1-1,1s-1-0.4-1-1S226.4,210,227,210L227,210z M238,225h-16v-2h16
							V225L238,225z M238,220h-16v-6h5.1l-2.1,2.8l1.6,1.2l2.4-3.2l1-1.4l1,1.4l2.4,3.2l1.6-1.2l-2.1-2.8h5.1V220L238,220z"/>
						<polygon id="Shape_7_" fill="none" points="218,206 242,206 242,230 218,230 						"/>
						<circle id="Oval-586_1_" fill="#616161" cx="236" cy="224" r="6"/>
						<polygon id="Path_1_" fill="#FAFAFA" points="240.5,222.1 239.5,221 234.6,225.9 232.5,223.8 231.4,224.8 234.6,228 						"/>
					</g>
				</g>
			</g>
		</g>
	</g>
	<g>
		<g id="credit-card-copy" transform="translate(2.000000, 0.000000)">
			<path id="Shape_2_" fill="#616161" d="M186,207h-16c-1.1,0-2,0.9-2,2v12c0,1.1,0.9,2,2,2h16c1.1,0,2-0.9,2-2v-12
				C188,207.9,187.1,207,186,207L186,207z M186,221h-16v-6h16V221L186,221z M186,211h-16v-2h16V211L186,211z"/>
		</g>
		<circle id="Oval-586" fill="#616161" cx="186" cy="222" r="6"/>
		<polygon id="Path" fill="#FAFAFA" points="190.5,220.1 189.5,219 184.6,223.9 182.5,221.8 181.4,222.8 184.6,226 		"/>
	</g>
	<g id="L">
		<g id="Split_Payment_Screens_04-Copy" transform="translate(-182.000000, -230.000000)">
			<g id="Group-2-Copy" transform="translate(136.000000, 120.000000)">
				<g id="BG-_x2B_-Print-_x26_-Email-Receip-_x2B_-mail-copy" transform="translate(0.000000, 79.000000)">
					<g id="Group" transform="translate(46.000000, 31.000000)">
						<path id="Shape_6_" fill="#616161" d="M200.4,216L200.4,216c0-1.3-0.5-2.3-0.8-2.7c-0.1-0.2-0.2-0.3-0.2-0.3
							c-0.3-0.3-0.8-0.4-1.1-0.1c-0.3,0.3-0.4,0.8-0.1,1.2c0,0,0,0,0,0l0,0l0,0c0,0,0,0,0.1,0.1c0.2,0.3,0.5,0.9,0.5,1.8
							c0,0.9-0.4,1.5-0.5,1.8c0,0.1-0.1,0.1-0.1,0.1l0,0l0,0c0,0,0,0,0,0c-0.3,0.3-0.3,0.9,0.1,1.2c0.3,0.3,0.8,0.3,1.1-0.1
							c0,0,0.1-0.1,0.2-0.3C199.9,218.3,200.4,217.4,200.4,216C200.4,216.1,200.4,216,200.4,216L200.4,216z"/>
						<path id="Shape_5_" fill="#616161" d="M201.6,220.8c-0.2,0-0.3-0.1-0.5-0.2c-0.3-0.3-0.4-0.8-0.2-1.2c0,0,0.9-1.3,0.9-3.4
							c0-2.1-0.9-3.5-0.9-3.5c-0.2-0.4-0.2-0.9,0.2-1.1c0.4-0.3,0.8-0.2,1.1,0.2c0.1,0.1,1.2,1.8,1.2,4.5c0,2.7-1.2,4.3-1.2,4.4
							C202.1,220.7,201.8,220.8,201.6,220.8L201.6,220.8z"/>
						<path id="Shape_4_" fill="#616161" d="M204.5,222.4c-0.2,0-0.3-0.1-0.5-0.2c-0.3-0.3-0.4-0.8-0.2-1.2c0,0,1.3-1.9,1.3-5
							c0-3.1-1.3-5.1-1.3-5.1c-0.2-0.4-0.2-0.9,0.2-1.1c0.4-0.3,0.8-0.2,1.1,0.2c0.1,0.1,1.6,2.5,1.6,6.1c0,3.6-1.5,5.9-1.6,5.9
							C204.9,222.3,204.7,222.4,204.5,222.4L204.5,222.4z"/>
						<path id="Shape_3_" fill="#616161" d="M207.3,224c-0.2,0-0.3-0.1-0.5-0.2c-0.3-0.3-0.4-0.8-0.2-1.2c0,0,1.7-2.5,1.7-6.6
							c0-4.1-1.7-6.8-1.7-6.8c-0.2-0.4-0.2-0.9,0.2-1.1c0.4-0.3,0.8-0.2,1.1,0.2c0.1,0.1,2,3.1,2,7.7c0,4.6-1.9,7.4-2,7.6
							C207.8,223.9,207.6,224,207.3,224L207.3,224z"/>
					</g>
				</g>
			</g>
		</g>
	</g>
	<g>
		<path fill="none" d="M249,216c0-1.7,1.3-3,3-3s3,1.3,3,3c0,0.8-0.3,1.5-0.8,2h5.8v-2v-3c-0.9,0-1.7-0.4-2.2-1h-11.6
			c-0.5,0.6-1.3,1-2.2,1v3v2h5.8C249.3,217.5,249,216.8,249,216z"/>
		<path fill="none" d="M257.8,212c-0.5-0.5-0.8-1.2-0.8-2h-10c0,0.8-0.3,1.5-0.8,2H257.8z"/>
		<path fill="none" d="M254.2,218c-0.5,0.6-1.3,1-2.2,1s-1.7-0.4-2.2-1H244v1c1.7,0,3,1.3,3,3h10c0-1.7,1.3-3,3-3v-1H254.2z"/>
		<path fill="#616161" d="M257,210c0-0.8,0.3-1.5,0.8-2h-11.6c0.5,0.5,0.8,1.2,0.8,2H257z"/>
		<path fill="#616161" d="M247,222c0,0.8-0.3,1.5-0.8,2h11.6c-0.5-0.5-0.8-1.2-0.8-2H247z"/>
		<path fill="#616161" d="M260,216v2v1c0.8,0,1.5,0.3,2,0.8v-7.6c-0.5,0.5-1.2,0.8-2,0.8V216z"/>
		<path fill="#616161" d="M244,218v-2v-3c-0.8,0-1.5-0.3-2-0.8v7.6c0.5-0.5,1.2-0.8,2-0.8V218z"/>
		<path fill="#616161" d="M252,213c-1.7,0-3,1.3-3,3c0,0.8,0.3,1.5,0.8,2h4.4c0.5-0.5,0.8-1.2,0.8-2C255,214.3,253.7,213,252,213z"
			/>
		<path fill="#616161" d="M252,219c0.9,0,1.7-0.4,2.2-1h-4.4C250.3,218.6,251.1,219,252,219z"/>
		<path fill="#616161" d="M246.2,212H244v1C244.9,213,245.7,212.6,246.2,212z"/>
		<path fill="#616161" d="M247,210h-3v2h2.2C246.7,211.5,247,210.8,247,210z"/>
		<path fill="#616161" d="M244,212v-2h3c0-0.8,0-2,0-2h-3c-1.1,0-2,0.9-2,2v3c0,0,1.2,0,2,0V212z"/>
		<path fill="#616161" d="M260,213v-1h-2.2C258.3,212.6,259.1,213,260,213z"/>
		<path fill="#616161" d="M260,212v-2h-3c0,0.8,0.3,1.5,0.8,2H260z"/>
		<path fill="#616161" d="M260,210v2v1c0.8,0,2,0,2,0v-3c0-1.1-0.9-2-2-2h-3c0,0,0,1.2,0,2H260z"/>
		<path fill="#616161" d="M244,219v3h3C247,220.3,245.7,219,244,219z"/>
		<path fill="#616161" d="M244,222v-3c-0.8,0-2,0-2,0v3c0,1.1,0.9,2,2,2h3c0,0,0-1.2,0-2H244z"/>
		<path fill="#616161" d="M257,222h3v-3C258.3,219,257,220.3,257,222z"/>
		<path fill="#616161" d="M262,222v-3c0,0-1.2,0-2,0v3h-3c0,0.8,0,2,0,2h3C261.1,224,262,223.1,262,222z"/>
	</g>
	<path fill="#FFFFFF" d="M868,15v4h-13.2l3.6-3.6L857,14l-6,6l6,6l1.4-1.4l-3.6-3.6H870v-6H868z"/>
	<path fill="#FFFFFF" d="M900.1,15.4l3.6,3.6h-14.2v2h14.2l-3.6,3.6l1.4,1.4l6-6l-6-6L900.1,15.4z M909,14v12h2V14H909z"/>
	<path fill="#FFFFFF" d="M980,16.6l4.6,4.6l1.4-1.4l-6-6l-6,6l1.4,1.4L980,16.6z M974,26.2h12v-2h-12V26.2z"/>
	<g id="L_2_">
		<g id="New_Proof_of_Purchase" transform="translate(-177.000000, -208.000000)">
			<g id="Group-2-Copy_1_" transform="translate(136.000000, 104.000000)">
				<g>
					<polygon fill="none" points="332,308 329,308 330.5,309.5 					"/>
					<rect x="332" y="313" fill="none" width="9" height="2"/>
					<polygon fill="none" points="335,308 332,308 333.5,309.5 					"/>
					<polygon fill="none" points="344,308 341,308 342.5,309.5 					"/>
					<polygon fill="none" points="338,308 335,308 336.5,309.5 					"/>
					<polygon fill="none" points="341,308 338,308 339.5,309.5 					"/>
					<rect x="332" y="321" fill="none" width="9" height="2"/>
					<path fill="none" d="M344,308v20l-1.5-1.5L341,328l-1.5-1.5L338,328l-1.5-1.5L335,328l-1.5-1.5L332,328l-1.5-1.5L329,328v-20
						h-1v24h20v-1h-2v-2h4v-1h-3c-0.5,0-1-0.5-1-1v-3c0-0.5,0.5-1,1-1h1v-1h2v1h2v-15H344z"/>
					<path fill="none" d="M351,331h-1v1h2v-2C352,330.5,351.5,331,351,331z"/>
					<path fill="none" d="M348,326h3c0.5,0,1,0.5,1,1v-2h-4V326z"/>
					<rect x="332" y="317" fill="none" width="9" height="2"/>
					<path fill="#616161" d="M350,322h-2v1h-1c-0.5,0-1,0.5-1,1v3c0,0.5,0.5,1,1,1h3v1h-4v2h2v1h2v-1h1c0.5,0,1-0.5,1-1v-3
						c0-0.5-0.5-1-1-1h-3v-1h4v-2h-2V322z"/>
					<path fill="#616161" d="M330.5,326.5l1.5,1.5l1.5-1.5l1.5,1.5l1.5-1.5l1.5,1.5l1.5-1.5l1.5,1.5l1.5-1.5l1.5,1.5v-20l-1.5,1.5
						L341,308l-1.5,1.5L338,308l-1.5,1.5L335,308l-1.5,1.5L332,308l-1.5,1.5L329,308v20L330.5,326.5z M332,313h9v2h-9V313z M332,317
						h9v2h-9V317z M332,321h9v2h-9V321z"/>
				</g>
			</g>
		</g>
	</g>
	<g id="L_3_">
		<g id="New_Proof_of_Purchase_1_" transform="translate(-176.000000, -288.000000)">
			<g id="Group-2-Copy_2_" transform="translate(136.000000, 104.000000)">
				<g id="BG-_x2B_-Print-_x26_-Email-Receip-_x2B_-mail-copy-2" transform="translate(0.000000, 158.000000)">
					<g id="ic_find_in_page_black_24px_1_" transform="translate(40.000000, 26.000000)">
						<g id="Group_3_">
							<polygon id="Shape_12_" fill="none" points="312,204 336,204 336,228 312,228 							"/>
							<path id="Combined-Shape_1_" fill="#616161" d="M328,210l-6-6h-8c-1.1,0-2,0.9-2,2l0,16c0,1.1,0.9,2,2,2h12c0.8,0,2-0.4,2-2
								V210z M332,228h2v-1h1c0.5,0,1-0.4,1-1v-3c0-0.6-0.5-1-1-1h-3v-1h4v-2h-2v-1h-2v1h-1c-0.5,0-1,0.4-1,1v3c0,0.6,0.5,1,1,1h3v1
								h-4v2h2V228z M321,220h-5v-2h5V220z M324,212h-8v-2h8V212z M324,216h-8v-2h8V216z"/>
						</g>
					</g>
				</g>
			</g>
		</g>
	</g>
	<path fill="#616161" d="M269.6,225.4l1.6,1.6l1.7-1.6l1.6,1.6l1.6-1.6l1.6,1.6l1.6-1.6l1.7,1.6l1.4-1.6l1.4,1.6v-22l-1.4,1.6
		l-1.5-1.6l-1.6,1.6l-1.6-1.6l-1.6,1.6l-1.6-1.6l-1.6,1.6l-1.6-1.6l-1.6,1.6L268,205v22L269.6,225.4z M271,211h10v2h-10V211z
		 M271,215h10v2h-10V215z M271,219h10v2h-10V219z"/>
	<path fill="#FFFFFF" d="M950,11h-15c-0.7,0-1.2,0.4-1.6,0.9L928,20l5.4,8.1c0.4,0.5,0.9,0.9,1.6,0.9h15c1.1,0,2-0.9,2-2V13
		C952,11.9,951.1,11,950,11z M947,23.6l-1.4,1.4l-3.6-3.6l-3.6,3.6l-1.4-1.4l3.6-3.6l-3.6-3.6l1.4-1.4l3.6,3.6l3.6-3.6l1.4,1.4
		l-3.6,3.6L947,23.6z"/>
	<g id="L_8_">
		<g id="Tenders" transform="translate(-41.000000, -424.000000)">
			<g id="Group-2">
				<g>
					<g id="BG-_x2B_-Print-_x26_-Email-Receip-_x2B_-mail-copy-5" transform="translate(0.000000, 394.000000)">
						<g id="ic_euro_symbol_black_24px" transform="translate(38.000000, 30.000000)">
							<path id="Combined-Shape_5_" fill="#616161" d="M383,210.2c0.4,0.2,0.9,0.5,1.2,0.8l1.8-1.8c-0.9-0.8-1.9-1.4-3-1.8V204
								l-1.5,1.5L380,204l-1.5,1.5L377,204l-1.5,1.5L374,204l-1.5,1.5L371,204l-1.5,1.5L368,204l-1.5,1.5L365,204v23h18v-2.5
								c1.1-0.4,2.1-1,3-1.8l-1.8-1.8c-0.4,0.3-0.8,0.6-1.2,0.8V210.2z M383,210.2c-0.9-0.5-1.9-0.7-3-0.7c-2.5,0-4.7,1.4-5.8,3.5
								h5.8v2h-6.4c0,0.3-0.1,0.7-0.1,1s0,0.7,0.1,1h6.4v2h-5.8c1.1,2.1,3.3,3.5,5.8,3.5c1.1,0,2.1-0.3,3-0.7v2.7
								c-0.9,0.3-1.9,0.5-3,0.5c-3.9,0-7.2-2.5-8.5-6H368v-2h3.1c0-0.3-0.1-0.7-0.1-1s0-0.7,0.1-1H368v-2h3.5c1.2-3.5,4.6-6,8.5-6
								c1.1,0,2.1,0.2,3,0.5V210.2z"/>
							<polygon id="Shape_18_" fill="none" points="362,204 386,204 386,228 362,228 							"/>
						</g>
					</g>
				</g>
			</g>
		</g>
	</g>
	<g id="L_9_">
		<g id="_x30_5-Checkout-C" transform="translate(-346.000000, -636.000000)">
			<g id="Tenders_1_" transform="translate(144.000000, 120.000000)">
				<g id="Group-2_1_">
					<g id="BG" transform="translate(184.000000, 496.000000)">
						<g id="BG-_x2B_-Print-_x26_-Email-Receip-_x2B_-mail-copy-6" transform="translate(17.000000, 20.000000)">
							<g id="noun_82998_cc" transform="translate(1.000000, 0.000000)">
								<g id="Group_6_">
									<path id="Shape_19_" fill="#616161" d="M405.1,213.9c0.1,0.3,0.1,0.7,0.1,1c0,2.6-1.4,5-3.8,6.5v1.6c0,0.5-0.4,1-0.9,1H399
										c-0.5,0-0.9-0.4-0.9-1v-0.4c-1.3,0.2-2.5,0.2-3.7,0v0.4c0,0.5-0.4,1-0.9,1h-1.6c-0.5,0-0.9-0.4-0.9-1v-1.7
										c-0.8-0.5-1.4-1.1-1.9-1.8h-1.8c-0.7,0-1.3-0.6-1.3-1.3v-3.7c0-0.7,0.6-1.3,1.3-1.3h0.5c0.2-0.9,0.6-1.7,1.2-2.5l-1.1-1.5
										l0.3-0.2c0.7-0.5,1.6-0.5,2.5,0c0.8-0.6,1.7-1,2.6-1.4c0.6-0.2,1.8-0.4,3.1-0.4c1.2,0,1.9,0.1,2.9,0.4
										c2.6,0.8,4.6,2.7,5.5,4.9c0.1,0,0.2-0.1,0.3-0.1c0.4,0,0.8,0.3,0.8,0.8C405.9,213.6,405.6,213.9,405.1,213.9L405.1,213.9z
										 M390,214.3c-0.4,0-0.7-0.3-0.7-0.7c0-0.4,0.3-0.7,0.7-0.7c0.4,0,0.7,0.3,0.7,0.7C390.7,214,390.4,214.3,390,214.3
										L390,214.3z M400.9,212l1-1c-1.4-1.4-3.2-2.2-5.3-2.2s-3.9,0.8-5.3,2.2l1,1c1.1-1.1,2.6-1.8,4.3-1.8S399.8,210.9,400.9,212
										L400.9,212z"/>
								</g>
							</g>
						</g>
					</g>
				</g>
			</g>
		</g>
	</g>
	<path fill="#616161" d="M355,217h-15v2h15V217z M355,213h-15v2h15V213z M355,209h-15v2h15V209z M340,223h10v-2h-10V223z"/>
	<path fill="#616161" d="M428,207h-16c-1.1,0-2,0.9-2,2v11c0,1.1,0.9,2,2,2h4v5l4-2l4,2v-5h4c1.1,0,2-0.9,2-2v-11
		C430,207.9,429.1,207,428,207z M428,220h-16v-2h16V220z M428,215h-16v-6h16V215z"/>
	<g display="none">
		<g id="credit-card-copy_2_" transform="translate(2.000000, 0.000000)" display="inline">
			<path id="Shape_10_" fill="#616161" d="M319,179h-12c-1.1,0-2,0.9-2,2v10c0,1.1,0.9,2,2,2h12c1.1,0,2-0.9,2-2v-10
				C321,179.9,320.1,179,319,179L319,179z M319,191h-12v-5h12V191L319,191z M319,183h-12v-2h12V183L319,183z"/>
		</g>
		<circle id="Oval-586_3_" display="inline" fill="#616161" cx="320.5" cy="191.5" r="5.5"/>
		<polygon display="inline" points="323.8,193.4 321,191.3 321,187 320,187 320,192 320.3,192 323.2,194.2 		"/>
	</g>
	<path fill="#9E9E9E" d="M322,86h-0.9c0.1-0.2-0.3-0.3-0.3-0.6c0-1.3-1.1-2.4-2.4-2.4c-0.8,0-1.6,0.4-2,1.1l-0.4,0.5l-0.4-0.5
		c-0.4-0.6-1.2-1.1-2-1.1c-1.3,0-2,0.9-2,2.2c0,0.3,0.1,0.6,0.1,0.8H310c-0.9,0-2,1.1-2,2l0,9c0,0.9,1.1,2,2,2h12c0.9,0,2-1.1,2-2
		v-9C324,87.1,322.9,86,322,86z M318.4,84.6c0.4,0,0.8,0.4,0.8,0.8s-0.4,0.8-0.8,0.8s-0.8-0.4-0.8-0.8S318,84.6,318.4,84.6z
		 M313.6,84.6c0.4,0,0.8,0.4,0.8,0.8s-0.4,0.8-0.8,0.8s-0.8-0.4-0.8-0.8S313.2,84.6,313.6,84.6z M322,97h-12v-2h12V97z M322,93h-12
		v-5h4l-2,2.1l1.3,0.9l1.9-2.6l0.8-1.1l0.8,1.1l1.9,2.6l1.3-0.9l-2-2.1h4V93z"/>
	<path fill="#FFFFFF" d="M362,86h-0.9c0.1-0.2-0.3-0.3-0.3-0.6c0-1.3-1.1-2.4-2.4-2.4c-0.8,0-1.6,0.4-2,1.1l-0.4,0.5l-0.4-0.5
		c-0.4-0.6-1.2-1.1-2-1.1c-1.3,0-2,0.9-2,2.2c0,0.3,0.1,0.6,0.1,0.8H350c-0.9,0-2,1.1-2,2l0,9c0,0.9,1.1,2,2,2h12c0.9,0,2-1.1,2-2
		v-9C364,87.1,362.9,86,362,86z M358.4,84.6c0.4,0,0.8,0.4,0.8,0.8s-0.4,0.8-0.8,0.8s-0.8-0.4-0.8-0.8S358,84.6,358.4,84.6z
		 M353.6,84.6c0.4,0,0.8,0.4,0.8,0.8s-0.4,0.8-0.8,0.8s-0.8-0.4-0.8-0.8S353.2,84.6,353.6,84.6z M362,97h-12v-2h12V97z M362,93h-12
		v-5h4l-2,2.1l1.3,0.9l1.9-2.6l0.8-1.1l0.8,1.1l1.9,2.6l1.3-0.9l-2-2.1h4V93z"/>
	<path fill="#9E9E9E" d="M323,137.6V132c0-1.1-0.9-2-2-2h-12c-1.1,0-2,0.9-2,2v10c0,1.1,0.9,2,2,2h6.2c0.7,2.3,2.8,4,5.3,4
		c3,0,5.5-2.5,5.5-5.5C326,140.4,324.8,138.5,323,137.6z M321,145h-1v-4h0l-0.9,0.3l-0.1-0.6l1.1-0.7h0.9V145z M321,137
		c-0.2,0-0.3,0-0.5,0c-2.9,0-5.2,2.2-5.5,5h-6v-5h11.5L321,137L321,137z M321,134h-12v-2h12V134z"/>
	<path fill="#FFFFFF" d="M363,137.6V132c0-1.1-0.9-2-2-2h-12c-1.1,0-2,0.9-2,2v10c0,1.1,0.9,2,2,2h6.2c0.7,2.3,2.8,4,5.3,4
		c3,0,5.5-2.5,5.5-5.5C366,140.4,364.8,138.5,363,137.6z M361,145h-1v-4h0l-0.9,0.3l-0.1-0.6l1.1-0.7h0.9V145z M361,137
		c-0.2,0-0.3,0-0.5,0c-2.9,0-5.2,2.2-5.5,5h-6v-5h11.5L361,137L361,137z M361,134h-12v-2h12V134z"/>
	<path fill="#9E9E9E" d="M323,114.6V109c0-1.1-0.9-2-2-2h-12c-1.1,0-2,0.9-2,2v10c0,1.1,0.9,2,2,2h6.2c0.7,2.3,2.8,4,5.3,4
		c3,0,5.5-2.5,5.5-5.5C326,117.4,324.8,115.5,323,114.6z M309,109h12v2h-12V109z M315,119h-6v-5h11.5h0.5v0c-0.2,0-0.3,0-0.5,0
		C317.6,114,315.3,116.2,315,119z M323.2,122.2l-2.9-2.2H320v-5h1v4.3l2.8,2.1L323.2,122.2z"/>
	<path fill="#FFFFFF" d="M363,114.6V109c0-1.1-0.9-2-2-2h-12c-1.1,0-2,0.9-2,2v10c0,1.1,0.9,2,2,2h6.2c0.7,2.3,2.8,4,5.3,4
		c3,0,5.5-2.5,5.5-5.5C366,117.4,364.8,115.5,363,114.6z M349,109h12v2h-12V109z M355,119h-6v-5h11.5h0.5v0c-0.2,0-0.3,0-0.5,0
		C357.6,114,355.3,116.2,355,119z M363.2,122.2l-2.9-2.2H360v-5h1v4.3l2.8,2.1L363.2,122.2z"/>
	<path fill="#FFFFFF" d="M531,20.9c0,0.5,0.2,0.9,0.5,1.3l6.3,6.3c0.3,0.3,0.8,0.5,1.3,0.5s0.9-0.2,1.3-0.5l8.1-8.1
		c0.3-0.3,0.5-0.8,0.5-1.3v-6.3c0-1-0.8-1.8-1.8-1.8h-6.3c-0.5,0-0.9,0.2-1.3,0.5l-8.1,8.1C531.2,19.9,531,20.4,531,20.9z
		 M544.5,14.1c0-0.7,0.6-1.3,1.3-1.3c0.7,0,1.4,0.6,1.4,1.3c0,0.7-0.6,1.4-1.4,1.4C545.1,15.5,544.5,14.9,544.5,14.1z"/>
	<path fill="#F47421" d="M80,60.6c0,0.3,0.1,0.6,0.4,0.8l4.2,4.2c0.2,0.2,0.5,0.4,0.8,0.4s0.6-0.1,0.8-0.3l5.4-5.4
		c0.2-0.2,0.4-0.5,0.4-0.9v-4.2c0-0.7-0.5-1.2-1.2-1.2h-4.2c-0.3,0-0.6,0.1-0.8,0.3l-5.4,5.4C80.1,60,80,60.3,80,60.6z M89,56.1
		c0-0.5,0.4-0.9,0.9-0.9s0.9,0.4,0.9,0.9c0,0.5-0.4,0.9-0.9,0.9S89,56.6,89,56.1z"/>
	<g>
		<path fill="#FFFFFF" d="M614,26c-1.3-1.3-1.3-3.3,0-4.6l3-3l-1.4-1.4l-3,3c-2.1,2.1-2.1,5.4,0,7.5c2.1,2.1,5.4,2.1,7.5,0l3-3
			l-1.4-1.4l-3,3C617.3,27.3,615.2,27.3,614,26z M617.8,23.7l6-6l-1.5-1.5l-6,6L617.8,23.7z M620,12.5l-3,3l1.4,1.4l3-3
			c1.3-1.3,3.3-1.3,4.6,0c1.3,1.3,1.3,3.3,0,4.6l-3,3l1.4,1.4l3-3c2.1-2.1,2.1-5.4,0-7.5C625.4,10.5,622.1,10.5,620,12.5z"/>
	</g>
	<g>
		<polygon fill="#FFFFFF" points="570.2,12.2 575.7,17.6 576.3,17.1 577.7,18.5 577.1,19.1 578.7,20.6 579.6,19.7 581.1,21.2 
			580.2,22.1 581.8,23.7 582.3,23.1 583.8,24.5 583.2,25.1 587.4,29.3 588.5,28.2 571.4,11 		"/>
		<path fill="#FFFFFF" d="M582.2,14c1.3-1.3,3.3-1.3,4.6,0c1.3,1.3,1.3,3.3,0,4.6l-2.7,2.7l1.4,1.4l2.7-2.7c2.1-2.1,2.1-5.4,0-7.4
			c-2.1-2.1-5.4-2.1-7.4,0l-2.7,2.7l1.4,1.4L582.2,14z"/>
		<polygon fill="#FFFFFF" points="578.5,23.8 580.2,22.1 581.1,21.2 579.6,19.7 578.7,20.6 577,22.3 		"/>
		
			<rect x="581.7" y="16.7" transform="matrix(-0.7071 -0.7071 0.7071 -0.7071 982.1397 442.8523)" fill="#FFFFFF" width="2.1" height="2.7"/>
		<path fill="#FFFFFF" d="M582.3,23.1l-0.6,0.6l-2.4,2.4c-1.3,1.3-3.3,1.3-4.6,0c-1.3-1.3-1.3-3.3,0-4.6l2.4-2.4l0.6-0.6l-1.4-1.4
			l-0.6,0.6l-2.4,2.4c-2.1,2.1-2.1,5.4,0,7.4s5.4,2.1,7.4,0l2.4-2.4l0.6-0.6L582.3,23.1z"/>
	</g>
	<g>
		
			<rect x="1047.8" y="19.6" transform="matrix(0.7071 0.7071 -0.7071 0.7071 324.7883 -743.4305)" fill="#FFFFFF" width="24" height="1.5"/>
		<g>
			<path fill="#FFFFFF" d="M1068.4,15c0.4-0.4,0.4-1,0-1.4l-2.3-2.3c-0.4-0.4-1-0.4-1.4,0l-1.8,1.8l3.7,3.7L1068.4,15z"/>
			<polygon fill="#FFFFFF" points="1057.7,17.9 1050,25.2 1050,29 1054.5,29 1061.6,21.7 			"/>
			
				<rect x="1060.9" y="14.6" transform="matrix(-0.7071 0.7071 -0.7071 -0.7071 1825.9922 -721.8882)" fill="#FFFFFF" width="3.3" height="5.3"/>
		</g>
	</g>
	<path fill="#1EA889" d="M9.5,289l-7.2-7.5L0,284l9.5,10L30,272.5l-2.4-2.5L9.5,289z"/>
	<g>
		<polygon fill="#EA2B1C" points="45,284.9 35.9,294 33,291.1 42.1,282 33,272.9 35.9,270 45,279.1 54.1,270 57,272.9 47.9,282 
			57,291.1 54.1,294 		"/>
	</g>
	<path fill="#FFFFFF" d="M1011,25.3V29h3.7l11.1-11.1l-3.7-3.7L1011,25.3z M1028.7,15c0.4-0.4,0.4-1,0-1.4l-2.3-2.3
		c-0.4-0.4-1-0.4-1.4,0l-1.8,1.8l3.7,3.7L1028.7,15z"/>
	<path fill="#FFFFFF" d="M1099.8,17h2v-3h3v-2h-3V9h-2v3h-3v2h3V17z M1095.9,26c-1.1,0-2,0.9-2,2s0.9,2,2,2c1.1,0,2-0.9,2-2
		S1097,26,1095.9,26z M1105.8,26c-1.1,0-2,0.9-2,2s0.9,2,2,2c1.1,0,2-0.9,2-2S1106.9,26,1105.8,26z M1096,22.8l0-0.1l0.9-1.6h7.4
		c0.7,0,1.4-0.4,1.7-1l3.8-7l-1.7-1h0l-1.1,2l-2.7,5h-7l-0.1-0.3L1095,14l-0.9-2l-0.9-2h-3.2v2h2l3.6,7.6l-1.3,2.5
		c-0.2,0.3-0.2,0.6-0.2,1c0,1.1,0.9,2,2,2h11.9v-2h-11.5C1096.2,23,1096,22.9,1096,22.8z"/>
</g>
</svg>
